# xmcd
#
# Track frame offsets:
#	150
#	15175
#	26620
#	44422
#	66871
#	80804
#	95756
#	109424
#	126208
#	140558
#	154415
#	175572
#	188748
#	205249
#	216869
#	229694
# Disc length: 3344 seconds
# Revision: 2
# Processed by: cddbd v1.5.2PL0 Copyright (c) Steve Scherf et al.
#
# Submitted via: libkcddb 0.31
#
DISCID=e10d0e10
DTITLE=Eddie and Frank Thomas - Angels on the Backroads:  Vol. 4 - Catfish Rowto Jackson Square
DYEAR=1900
DGENRE=Unknown
TTITLE0=Vicksburg Blues
TTITLE1=New Someday Baby
TTITLE2=Mississippi River Blues
TTITLE3=Pres Returns
TTITLE4=Juke
TTITLE5=Midnight Special
TTITLE6=Jolie Blonde
TTITLE7=Buddy Bolden's Blues
TTITLE8=Bamboula
TTITLE9=Wolverine Blues
TTITLE10=Mr. Jelly Lord
TTITLE11=Mamie's Blues
TTITLE12=Basin Street Blues
TTITLE13=Hotter Than That
TTITLE14=Tomorrow Night
TTITLE15=Sweet Hour of Prayer
EXTD=
EXTT0=
EXTT1=
EXTT2=
EXTT3=
EXTT4=
EXTT5=
EXTT6=
EXTT7=
EXTT8=
EXTT9=
EXTT10=
EXTT11=
EXTT12=
EXTT13=
EXTT14=
EXTT15=
PLAYORDER=
